<svg width="242" height="56" viewBox="0 0 242 56" fill="none" xmlns="http://www.w3.org/2000/svg">
<path fill-rule="evenodd" clip-rule="evenodd" d="M225.799 21.8162H241.997L237.272 41.2818H219.68L205.329 41.237H205.324C204.266 41.2314 203.375 41.1474 202.664 40.9514C202.037 40.7834 201.556 40.5258 201.225 40.1618C200.99 39.893 201.069 39.0866 201.248 38.2354C201.466 37.2106 201.852 36.1634 202.043 35.6538C202.491 34.4834 202.995 33.257 203.571 32.0362C204.142 30.8154 204.786 29.617 205.492 28.5138C206.248 27.3266 207.121 26.229 208.151 25.3162C209.159 24.409 210.324 23.6698 211.679 23.1658C212.591 22.8242 213.554 22.5274 214.523 22.309C214.825 22.2418 215.105 22.1802 215.368 22.1354C215.637 22.085 215.912 22.0458 216.208 22.001C216.964 21.8946 217.714 21.833 218.414 21.833L225.055 21.8274L225.799 21.8162ZM174.636 41.2818H166.803L177.122 30.961L174.636 41.2818ZM191.388 21.8162H196.746C194.473 24.3866 192.67 27.1978 191.349 30.2498C190.974 31.101 190.643 31.969 190.346 32.8594C190.05 33.7442 189.787 34.6458 189.568 35.5698V35.5754L189.563 35.5866C189.064 37.6642 188.852 39.5626 188.936 41.2874H186.696L191.388 21.8162ZM170.425 21.8162H171.707L170.011 23.5242L170.425 21.8162ZM156.562 21.8162H158.359L153.667 41.2818H136.602C138.64 40.369 140.527 39.4282 142.251 38.4538C145.174 36.8018 147.671 35.049 149.754 33.1618C151.501 31.5714 152.923 29.925 154.02 28.2506C155.129 26.5538 155.896 24.801 156.327 23.0146C156.422 22.6114 156.501 22.2138 156.562 21.8162ZM139.356 21.8162H141.31C141.876 21.8386 142.363 21.8946 142.755 21.9786C142.867 22.001 142.962 22.029 143.046 22.0514C143.119 22.0682 143.197 22.1018 143.276 22.1298L143.354 22.1578C143.729 22.3202 143.925 22.5778 143.953 22.9306C143.959 23.0258 143.959 23.1266 143.948 23.2274C143.936 23.3338 143.914 23.457 143.88 23.6026V23.6082C143.656 24.5378 142.917 25.5682 141.669 26.6882C141.434 26.901 141.154 27.1306 140.835 27.3826C140.527 27.6234 140.202 27.8642 139.866 28.105L139.855 28.1162H139.849C138.629 28.9898 137.274 29.813 135.784 30.5746L135.7 30.6194L137.811 21.8386L139.356 21.8162ZM122.223 21.8162H125.801L121.076 41.2818H114.418C116.692 38.7114 118.495 35.9002 119.816 32.8538C120.185 32.0026 120.521 31.1346 120.818 30.2442C121.115 29.3594 121.372 28.4522 121.596 27.5282V27.517C122.095 25.445 122.307 23.541 122.223 21.8162ZM75.7573 21.8162H90.0908L91.2778 21.8218L105.841 21.8666C106.899 21.8722 107.789 21.9562 108.506 22.1522C109.133 22.3202 109.614 22.5722 109.939 22.9362C110.18 23.205 110.096 24.0114 109.917 24.857C109.743 25.6746 109.469 26.4978 109.267 27.0578H97.6438L97.4703 27.769L95.7402 34.8474L95.4658 35.9954L96.6472 36.001L104.659 36.0178C104.161 36.6618 103.612 37.2554 103.008 37.793C102 38.7002 100.835 39.445 99.4859 39.949C98.5733 40.2906 97.6102 40.5818 96.6416 40.8058C96.3393 40.873 96.0593 40.929 95.7962 40.985C95.5274 41.0354 95.2475 41.0746 94.9563 41.1194C94.1949 41.2258 93.4502 41.2818 92.7447 41.2818L86.8434 41.2874H62.7117L73.8649 30.1378V30.1266C75.4214 28.5642 76.2053 26.5034 76.2053 24.4482C76.1941 23.5578 76.0485 22.6674 75.7573 21.8162Z" fill="#ABA8A8"/>
<path fill-rule="evenodd" clip-rule="evenodd" d="M201.175 35.329C200.772 36.3874 199.557 39.7026 200.537 40.789C201.438 41.7914 203.039 42.1554 205.318 42.1666L219.887 42.2114L217.77 50.9362H202.317C196.948 50.9362 193.286 49.4018 191.354 46.3106C189.703 43.673 189.412 40.1618 190.459 35.7994C192.004 29.393 195.369 23.8994 200.554 19.341C205.985 14.5698 211.914 12.173 218.319 12.173L227.171 12.1674L225.055 20.8922L218.414 20.9034C216.136 20.9034 213.622 21.441 211.348 22.2922C208.409 23.3898 206.304 25.501 204.697 28.0154C203.241 30.317 202.082 32.9434 201.175 35.329Z" fill="#0061A6"/>
<path fill-rule="evenodd" clip-rule="evenodd" d="M134.328 32.2938C136.624 31.2522 138.64 30.1098 140.381 28.8666C142.94 27.0634 144.407 25.3834 144.782 23.821C145.084 22.5778 144.726 21.7378 143.707 21.2954C143.052 21.0154 141.982 20.8642 140.504 20.8754L137.078 20.9034L134.328 32.2938ZM129.105 12.1618H145.252C149.653 12.1618 152.693 13.265 154.367 15.4714C155.795 17.353 156.148 19.7946 155.42 22.8018C154.608 26.1674 152.514 29.393 149.127 32.473C145.073 36.1578 139.368 39.3218 131.949 42.2058L129.844 50.9306H119.693L129.105 12.1618Z" fill="#0061A6"/>
<path fill-rule="evenodd" clip-rule="evenodd" d="M161.64 12.1674H171.791L168.331 26.537L182.603 12.1674H192.754L183.415 50.9362H173.264L178.796 27.965L164.552 42.2114L162.452 50.9362H152.301L161.64 12.1674Z" fill="#0061A6"/>
<path fill-rule="evenodd" clip-rule="evenodd" d="M109.99 27.7746C110.381 26.7106 111.608 23.401 110.628 22.3146C109.726 21.3122 108.125 20.9482 105.841 20.9314L91.2777 20.8866L93.3941 12.1618H108.847C114.211 12.1618 117.879 13.7018 119.81 16.7874C121.462 19.4306 121.753 22.9362 120.7 27.3042C119.155 33.7106 115.796 39.2042 110.605 43.7626C105.18 48.5338 99.2507 50.9306 92.8398 50.9306H83.9822L86.1042 42.2058L92.739 42.2002C95.0234 42.1946 97.5374 41.657 99.8106 40.8114C102.744 39.7082 104.838 37.5914 106.462 35.0882L96.6527 35.0658L98.3716 27.993H109.911L109.99 27.7746Z" fill="#0061A6"/>
<path fill-rule="evenodd" clip-rule="evenodd" d="M34.0784 13.7858L45.7859 2.0706C48.5518 -0.6902 53.0702 -0.6902 55.8417 2.0706L73.1874 19.4194C75.9477 22.1858 75.9477 26.7106 73.1874 29.477L55.8417 46.8202C53.0758 49.581 48.5518 49.581 45.7859 46.8202L41.1779 42.2058H14.8066L16.5367 35.0994H55.265L56.9895 27.9986L18.2612 27.9874L19.9857 20.8866H58.7196L60.4441 13.7802H34.0784V13.7858Z" fill="#FCDB00"/>
<path fill-rule="evenodd" clip-rule="evenodd" d="M41.1834 42.2114L29.4647 53.9266C26.7044 56.6874 22.1804 56.6874 19.4145 53.9266L2.07443 36.5722C-0.691477 33.8114 -0.691477 29.2866 2.07443 26.5202L19.4201 9.1714C22.1804 6.405 26.7044 6.405 29.4703 9.1714L34.0839 13.7858H60.4496L58.7251 20.8922H19.9856L18.2611 27.993L56.9894 27.9986L55.2649 35.105H16.5422L14.8122 42.2114H41.1834Z" fill="#0061A6"/>
</svg>
